<svg id="_x33_0" enable-background="new 0 0 62 62.414" height="512" viewBox="0 0 62 62.414" width="512" xmlns="http://www.w3.org/2000/svg"><g><path d="m55 6.414h-15.586l2-2-4.414-4.414-9.414 9.414 9.414 9.414 4.414-4.414-2-2h15.586c.552 0 1 .449 1 1v25h6v-25c0-3.86-3.141-7-7-7zm5 30h-2v-23c0-1.654-1.346-3-3-3h-20.414l4 4-1.586 1.586-6.586-6.586 6.586-6.586 1.586 1.586-4 4h20.414c2.757 0 5 2.243 5 5z"/><path d="m36 62.414h26v-10h-26zm24-2h-18v-6h18zm-22-6h2v6h-2z"/><path d="m44 56.414h2v2h-2z"/><path d="m48 56.414h2v2h-2z"/><path d="m52 56.414h2v2h-2z"/><path d="m56 56.414h2v2h-2z"/><path d="m36 50.414h26v-10h-26zm24-2h-18v-6h18zm-22-6h2v6h-2z"/><path d="m44 44.414h2v2h-2z"/><path d="m48 44.414h2v2h-2z"/><path d="m52 44.414h2v2h-2z"/><path d="m56 44.414h2v2h-2z"/><path d="m26 16.414h-26v10h26zm-24 2h2v6h-2zm22 6h-18v-6h18z"/><path d="m8 20.414h2v2h-2z"/><path d="m12 20.414h2v2h-2z"/><path d="m16 20.414h2v2h-2z"/><path d="m20 20.414h2v2h-2z"/><path d="m26 4.414h-26v10h26zm-24 2h2v6h-2zm22 6h-18v-6h18z"/><path d="m8 8.414h2v2h-2z"/><path d="m12 8.414h2v2h-2z"/><path d="m16 8.414h2v2h-2z"/><path d="m20 8.414h2v2h-2z"/><path d="m17 38.414c-3.859 0-7 3.14-7 7s3.141 7 7 7 7-3.14 7-7-3.141-7-7-7zm0 12c-2.757 0-5-2.243-5-5s2.243-5 5-5 5 2.243 5 5-2.243 5-5 5z"/><path d="m17 34.414c-6.065 0-11 4.935-11 11s4.935 11 11 11 11-4.935 11-11-4.935-11-11-11zm0 20c-4.963 0-9-4.038-9-9s4.037-9 9-9 9 4.038 9 9-4.037 9-9 9z"/><path d="m30.839 39.661c-.376-.904-.263-1.917.303-2.708l.602-.838-5.442-5.441-.838.598c-.793.567-1.805.679-2.751.286-.901-.371-1.535-1.167-1.695-2.129l-.171-1.015h-7.691l-.171 1.016c-.16.961-.794 1.756-1.736 2.145-.904.375-1.918.263-2.71-.304l-.838-.598-5.438 5.439.597.839c.566.792.68 1.805.286 2.75-.371.902-1.167 1.536-2.127 1.696l-1.019.169v7.695l1.016.168c.961.16 1.757.794 2.146 1.737.376.904.263 1.917-.306 2.712l-.595.837 5.438 5.439.838-.599c.793-.566 1.806-.68 2.751-.286.901.371 1.535 1.167 1.695 2.129l.171 1.015h7.691l.171-1.016c.16-.961.794-1.756 1.736-2.145.904-.377 1.918-.262 2.71.304l.838.598 5.442-5.441-.601-.837c-.566-.792-.68-1.805-.286-2.75.371-.902 1.167-1.536 2.127-1.696l1.018-.168v-7.695l-1.016-.168c-.961-.161-1.756-.795-2.145-1.738zm1.161 7.953c-1.35.423-2.444 1.42-3.007 2.785-.557 1.336-.486 2.813.169 4.067l-3.111 3.111c-1.253-.655-2.733-.724-4.101-.155-1.336.55-2.328 1.644-2.75 2.993h-4.4c-.423-1.35-1.42-2.445-2.785-3.007-1.336-.557-2.812-.486-4.065.169l-3.111-3.111c.655-1.254.724-2.734.155-4.101-.552-1.336-1.644-2.328-2.994-2.751v-4.399c1.35-.423 2.444-1.42 3.007-2.785.557-1.337.486-2.814-.169-4.066l3.111-3.111c1.252.654 2.733.723 4.101.155 1.336-.55 2.328-1.644 2.75-2.993h4.4c.423 1.35 1.42 2.445 2.785 3.007 1.338.556 2.815.485 4.065-.169l3.111 3.111c-.655 1.254-.724 2.735-.155 4.102.551 1.334 1.644 2.327 2.993 2.75v4.398z"/></g></svg>